<?xml version="1.0" encoding="UTF-8" standalone="no"?>
<!-- Created with Inkscape (http://www.inkscape.org/) -->

<svg
   width="54mm"
   height="14mm"
   viewBox="0 0 54 14"
   version="1.1"
   id="svg1"
   inkscape:version="1.3 (0e150ed6c4, 2023-07-21)"
   sodipodi:docname="delta.svg"
   xmlns:inkscape="http://www.inkscape.org/namespaces/inkscape"
   xmlns:sodipodi="http://sodipodi.sourceforge.net/DTD/sodipodi-0.dtd"
   xmlns="http://www.w3.org/2000/svg"
   xmlns:svg="http://www.w3.org/2000/svg">
  <sodipodi:namedview
     id="namedview1"
     pagecolor="#ffffff"
     bordercolor="#000000"
     borderopacity="0.25"
     inkscape:showpageshadow="2"
     inkscape:pageopacity="0.0"
     inkscape:pagecheckerboard="0"
     inkscape:deskcolor="#d1d1d1"
     inkscape:document-units="mm"
     showgrid="false"
     inkscape:zoom="5.7941076"
     inkscape:cx="85.863093"
     inkscape:cy="3.7106663"
     inkscape:window-width="2560"
     inkscape:window-height="1009"
     inkscape:window-x="-8"
     inkscape:window-y="-8"
     inkscape:window-maximized="1"
     inkscape:current-layer="layer1">
    <inkscape:grid
       id="grid4"
       units="mm"
       originx="0"
       originy="0"
       spacingx="1"
       spacingy="0.99999997"
       empcolor="#0099e5"
       empopacity="0.30196078"
       color="#0099e5"
       opacity="0.14901961"
       empspacing="5"
       dotted="false"
       gridanglex="30"
       gridanglez="30"
       visible="false" />
  </sodipodi:namedview>
  <defs
     id="defs1" />
  <g
     inkscape:label="图层 1"
     inkscape:groupmode="layer"
     id="layer1">
    <path
       d="m 43.781893,4.0179415 c 1.605469,-0.445506 3.982591,-0.8925438 5.313779,-0.8925438 1.482356,0 4.227741,0.3223874 4.227803,2.7106073 l 1.93e-4,7.389057 -3.725,0.250938 -3.7e-5,-4.6303529 c -0.474299,0.2302105 -0.667352,0.2986952 -1.277734,0.4823145 -0.342037,0.1028937 -0.610935,0.1897103 -0.806696,0.2604498 -0.405684,0.1515771 -0.884033,0.4469806 -0.856255,0.9935676 0.01111,0.218649 0.107409,0.405144 0.288888,0.559485 0.181479,0.154341 0.461928,0.231511 0.841349,0.231511 0.375566,0 0.711439,-0.0625 1.060441,-0.202573 0.299669,-0.120273 0.721758,-0.351295 0.832076,-0.42832 l 0.05427,1.381373 c -0.08403,0.262872 -0.606081,0.769622 -1.385104,1.091954 -0.38302,0.158479 -0.820062,0.260456 -1.621988,0.260456 -0.797427,0 -1.468577,-0.109325 -2.013452,-0.327974 C 43.394889,12.596634 42.969994,11.280523 42.934488,10.581978 42.894408,9.7932923 43.20386,9.2365643 43.50218,8.8456461 44.909166,7.0019241 48.22302,7.4482728 49.209393,6.5015979 49.73177,6.0002446 49.5203,5.2475803 48.142428,5.2475803 c -1.106108,0 -2.645484,0.2274933 -4.337653,1.0692406 z"
       id="a"
       sodipodi:nodetypes="csscccscssssccsscsssscc"
       inkscape:label="a" />
    <path
       d="m 40.793334,13.147892 c -1.164028,0.261628 -1.921726,0.327976 -2.570712,0.327976 -2.315961,0 -2.903395,-0.828249 -3.154288,-1.504821 -0.119237,-0.321543 -0.101,-0.661914 -0.101,-1.022507 V 6.1736271 h -1.582 V 3.5208976 h 1.582029 l -2.9e-5,-1.9389041 3.585274,-0.78135143 -2.74e-4,2.72025353 h 2.241438 l -4.38e-4,2.6527295 h -2.241 v 3.106105 c 0,1.2536029 0.912379,1.3504809 1.194418,1.3504809 0.593771,0 0.779162,-0.09791 1.046582,-0.241159 z"
       id="t"
       sodipodi:nodetypes="cssscccccccccccscc"
       inkscape:label="t" />
    <path
       d="M 27.406916,13.215416 27.407167,0 h 3.941857 l 1.43e-4,13.215 z"
       id="l"
       sodipodi:nodetypes="ccccc"
       inkscape:label="l" />
    <path
       d="m 24.256872,12.656153 c -1.12128,0.589396 -2.365732,0.819759 -4.105183,0.819759 -2.400204,0 -3.633753,-0.903824 -4.325943,-1.726732 -0.83355,-1.005966 -1.08099,-2.2892603 -1.12447,-3.1446901 -0.02036,-0.4005162 -0.125721,-4.2535562 3.285067,-5.2089961 0.665761,-0.1864949 1.352339,-0.2797424 2.059734,-0.2797424 1.165648,0 2.768189,0.2009752 3.849337,1.1479084 0.924278,0.8095351 1.378684,1.8833098 1.443779,3.1639829 0.01863,0.3665589 -0.0024,0.7749185 -0.06313,1.2250787 l -6.761558,0.00965 c -0.0081,0.691807 0.233577,2.3054636 2.663832,2.3054636 1.050413,0 2.320473,-0.358284 3.566669,-0.73586 z M 18.516655,7.1864854 h 3.183275 c 0.0062,-0.7768027 -0.225804,-1.8231486 -1.520346,-1.8231486 -0.470663,0 -1.043106,0.2038761 -1.369133,0.7717032 -0.154356,0.2688265 -0.224466,0.4930235 -0.293823,1.0514455 z"
       id="e"
       sodipodi:nodetypes="cscsssssccsccccsscc"
       inkscape:label="e" />
    <path
       d="M 0.06155684,13.225062 0,0 6.4311329,8.1956387e-8 C 7.2928681,9.2938076e-8 8.0511091,0.05144696 8.7058558,0.15434071 9.6178753,0.29766499 11.029425,0.76551942 12.033953,2.0546596 13.160702,3.500646 13.367027,5.3180135 13.403652,6.038577 13.49595,7.8547719 13.07543,9.1947393 12.724905,9.9549704 11.855394,11.840807 10.372204,12.564927 9.5623415,12.829565 8.4723747,13.185729 6.5418895,13.225062 5.7432212,13.225062 Z M 4.031,10.321529 c 0.3553315,0.03215 0.7760936,0.04823 1.1619451,0.04823 0.6559477,0 1.238214,-0.05788 1.7467991,-0.173633 C 8.6563024,9.8054339 9.3256436,7.9830244 9.2331836,6.1639788 9.1872378,3.9949343 8.0417452,2.8632164 5.6680427,2.8263628 5.2050766,2.8191749 4.6593783,2.8456558 4.0311153,2.8842408 Z"
       id="D"
       sodipodi:nodetypes="ccsssssscccsssscc"
       inkscape:label="D" />
  </g>
</svg>
