<?xml version="1.0" encoding="UTF-8" standalone="no"?>
<!-- Created with Inkscape (http://www.inkscape.org/) -->

<svg
   width="54mm"
   height="14mm"
   viewBox="0 0 54 14"
   version="1.1"
   id="svg1"
   inkscape:version="1.3 (0e150ed6c4, 2023-07-21)"
   sodipodi:docname="delta.svg"
   xmlns:inkscape="http://www.inkscape.org/namespaces/inkscape"
   xmlns:sodipodi="http://sodipodi.sourceforge.net/DTD/sodipodi-0.dtd"
   xmlns="http://www.w3.org/2000/svg"
   xmlns:svg="http://www.w3.org/2000/svg">
  <sodipodi:namedview
     id="namedview1"
     pagecolor="#ffffff"
     bordercolor="#000000"
     borderopacity="0.25"
     inkscape:showpageshadow="2"
     inkscape:pageopacity="0.0"
     inkscape:pagecheckerboard="0"
     inkscape:deskcolor="#d1d1d1"
     inkscape:document-units="mm"
     showgrid="true"
     inkscape:zoom="5.7941076"
     inkscape:cx="74.644799"
     inkscape:cy="31.497517"
     inkscape:window-width="2560"
     inkscape:window-height="1009"
     inkscape:window-x="-8"
     inkscape:window-y="-8"
     inkscape:window-maximized="1"
     inkscape:current-layer="svg1">
    <inkscape:grid
       id="grid4"
       units="mm"
       originx="0"
       originy="0"
       spacingx="1"
       spacingy="0.99999997"
       empcolor="#0099e5"
       empopacity="0.30196078"
       color="#0099e5"
       opacity="0.14901961"
       empspacing="5"
       dotted="false"
       gridanglex="30"
       gridanglez="30"
       visible="true" />
  </sodipodi:namedview>
  <defs
     id="defs1" />
  <g
     inkscape:groupmode="layer"
     id="layer2"
     inkscape:label="图层 2">
    <path
       d="M 40.096163,5.6607765 40.0961,4.458123 c 0.623524,-0.4641033 2.12714,-1.0851374 2.792333,-1.1687386 0.665193,-0.083601 1.309687,-0.1254018 1.93348,-0.1254018 0.849207,0 2.501454,0.1258091 3.38226,1.032153 0.349981,0.3601281 0.553295,0.8771809 0.553328,1.5530525 l 3.64e-4,7.4565819 -2.622364,0.23123 -2.75e-4,-5.3341174 c -0.237419,0.1607715 -0.419046,0.2733116 -0.544881,0.3376201 -0.581432,0.2971456 -1.372758,0.4272107 -2.225939,0.7234717 -0.737242,0.2509601 -1.451065,0.6795141 -1.477484,1.5241136 0.0291,0.673016 0.52636,0.996995 0.877563,1.109323 0.241279,0.07717 0.522691,0.115756 0.844234,0.115756 0.665018,0 1.860709,-0.508807 2.526782,-1.23142 v 1.292224 c -0.756226,0.830988 -1.644302,1.444281 -3.203647,1.463313 -0.810228,0.0099 -1.48061,-0.109324 -2.010967,-0.327973 -1.48107,-0.610597 -1.618587,-2.184155 -1.631344,-2.479097 -0.01196,-0.276527 0.02445,-0.549838 0.109229,-0.8199342 0.08478,-0.2700961 0.215551,-0.5176842 0.39231,-0.7427643 1.227097,-1.397916 3.192417,-1.5862815 4.899094,-2.035367 2.191235,-0.6495584 1.869234,-2.3247556 -0.467128,-2.3247556 -2.1391,0 -4.12691,0.9533876 -4.12691,0.9533876 z"
       id="a"
       sodipodi:nodetypes="ccsssscccsssssccssssscscc"
       inkscape:label="a" />
    <path
       d="m 37.824334,12.628371 c -0.591657,0.481074 -1.555697,0.808908 -2.202978,0.808908 -2.241256,0 -2.770022,-1.040889 -2.770022,-2.36334 V 5.3536903 h -1.496015 l 0.0063,-1.8617338 h 1.489715 l 4.35e-4,-1.900319 2.494316,-0.5401922 2.49e-4,2.4405112 h 2.478298 l -2.98e-4,1.8617338 h -2.478 v 4.5434021 c 0.03215,0.7432016 0.209182,1.1899466 0.635742,1.3987116 0.197098,0.09646 0.404972,0.144695 0.623621,0.144695 0.323245,0 0.660808,-0.05565 0.992611,-0.242736 z"
       id="t"
       sodipodi:nodetypes="csccccccccccccsscc"
       inkscape:label="t" />
    <path
       d="M 26.342636,13.20577 26.380816,0 l 2.778351,0.4 1.66e-4,12.80577 h -2.778166 z"
       id="l"
       sodipodi:nodetypes="cccccc"
       inkscape:label="l" />
    <path
       d="M 23.571593,10.628588 23.2547,12.076246 c -1.373832,0.983963 -2.189393,1.361034 -4.364139,1.361034 -1.30899,0 -3.26366,-0.701571 -4.18568,-2.816716 -1.082928,-2.6439363 -0.447125,-7.4662277 4.596667,-7.4662277 4.233747,0 4.743197,3.0580225 4.790337,4.1479043 0.01307,0.3022504 -0.0056,0.6141471 -0.05599,0.9356901 l -7.070312,0.00965 c -0.0062,0.5629445 -0.0076,1.1253882 0.278485,1.7556253 0.163487,0.360128 0.392133,0.665594 0.685938,0.916397 0.770428,0.657664 1.77894,0.733118 2.202126,0.733118 1.486901,0 3.439461,-1.024133 3.439461,-1.024133 z m -6.577658,-3.5096269 4.514881,0.00965 c -0.01335,-0.3086812 -0.03287,-0.5369767 -0.05856,-0.6848865 -0.0395,-0.210726 -0.223941,-0.9768951 -0.869535,-1.369773 -0.248505,-0.1512275 -0.654506,-0.2990347 -1.199429,-0.2990347 -0.387603,0 -0.947757,0.087424 -1.464249,0.4919608 -0.646049,0.5060108 -0.804112,1.1312648 -0.923105,1.8520874 z"
       id="e"
       sodipodi:nodetypes="ccssssccssscccsssscc"
       inkscape:label="e" />
    <path
       d="M 0,13.20577 V 0 L 5.8821705,-1.7136335e-7 C 7.9823263,-2.325465e-7 9.7243574,0.28092834 11.004836,1.5723449 12.437676,3.017427 12.716616,5.0190072 12.760298,6.0289305 12.907595,9.4345864 11.19666,12.326398 8.2451236,12.926027 7.3335773,13.112522 6.2925959,13.20577 5.1221795,13.20577 3.414612,13.184415 0,13.20577 0,13.20577 Z M 2.8725394,11.15111 C 3.4009826,11.17684 3.9224386,11.1897 4.4369073,11.1897 5.8248913,11.1831 7.2933161,11.11945 8.3862437,10.167188 8.7323249,9.8581905 9.4137898,9.1728615 9.7066647,7.6880922 9.8068763,7.1800543 9.8455776,6.6623702 9.8227687,6.1350397 9.7162608,3.6726357 8.5374984,2.7489189 7.8679233,2.4212184 7.3222012,2.1446915 6.4898553,2.006428 5.3708858,2.006428 4.6441987,2.006428 2.873,2.045013 2.873,2.045013 Z"
       id="D"
       inkscape:label="D" />
  </g>
</svg>
