<?xml version="1.0" encoding="UTF-8" standalone="no"?>
<!-- Created with Inkscape (http://www.inkscape.org/) -->

<svg
   width="116mm"
   height="10mm"
   viewBox="0 0 116 10"
   version="1.1"
   id="svg1"
   inkscape:version="1.3 (0e150ed6c4, 2023-07-21)"
   sodipodi:docname="title_hp.svg"
   xmlns:inkscape="http://www.inkscape.org/namespaces/inkscape"
   xmlns:sodipodi="http://sodipodi.sourceforge.net/DTD/sodipodi-0.dtd"
   xmlns="http://www.w3.org/2000/svg"
   xmlns:svg="http://www.w3.org/2000/svg">
  <sodipodi:namedview
     id="namedview1"
     pagecolor="#ffffff"
     bordercolor="#000000"
     borderopacity="0.25"
     inkscape:showpageshadow="2"
     inkscape:pageopacity="0.0"
     inkscape:pagecheckerboard="0"
     inkscape:deskcolor="#d1d1d1"
     inkscape:document-units="mm"
     showguides="false"
     showgrid="true"
     inkscape:zoom="4"
     inkscape:cx="174.875"
     inkscape:cy="-2.875"
     inkscape:window-width="2560"
     inkscape:window-height="1009"
     inkscape:window-x="-8"
     inkscape:window-y="-8"
     inkscape:window-maximized="1"
     inkscape:current-layer="layer2">
    <inkscape:grid
       id="grid1"
       units="mm"
       originx="0"
       originy="0"
       spacingx="0.99999999"
       spacingy="0.99999997"
       empcolor="#0099e5"
       empopacity="0.30196078"
       color="#0099e5"
       opacity="0.14901961"
       empspacing="5"
       dotted="false"
       gridanglex="30"
       gridanglez="30"
       visible="true" />
  </sodipodi:namedview>
  <defs
     id="defs1">
    <rect
       x="84.913849"
       y="118.74132"
       width="579.20911"
       height="173.27948"
       id="rect1" />
  </defs>
  <g
     inkscape:groupmode="layer"
     id="layer2"
     inkscape:label="图层 2"
     style="display:inline">
    <path
       d="m 97.008704,8.434758 0.008,-1.9186787 c 0,0 1.62792,0.454915 2.46432,0.4770948 0.32413,0.0086 0.702266,-0.030845 0.988256,-0.1836248 0.16043,-0.085697 0.33507,-0.2092789 0.33815,-0.3577978 0.008,-0.3640865 -0.20649,-0.4513615 -0.44664,-0.5896684 -0.855746,-0.3960094 -1.712476,-0.7698254 -2.483766,-1.3133519 -0.24669,-0.1822611 -0.43983,-0.3520142 -0.57943,-0.5092591 -0.13497,-0.1572448 -0.23503,-0.3162765 -0.30016,-0.477095 -0.0601,-0.1643924 -0.0901,-0.3377192 -0.0901,-0.5199803 0,-0.2179986 0.0489,-0.4306365 0.14663,-0.6379138 0.10242,-0.2108511 0.25367,-0.4074073 0.45376,-0.5896684 0.20013,-0.1822611 0.46543,-0.3395059 0.79589,-0.4717345 0.33015,-0.1322288 0.68372,-0.2215725 1.06071,-0.2680311 C 99.741184,1.025016 100.12973,1 100.52999,1 c 0.78655,0 2.20419,0.1690789 3.14207,0.5072368 l -0.72663,2.0471135 c -0.25663,-0.3102181 -0.58366,-0.4946497 -0.87889,-0.6499193 -0.31501,-0.1696635 -0.61768,-0.2733432 -0.94379,-0.2733432 -0.36303,0 -0.59538,0.034279 -0.83736,0.1379182 -0.23739,0.1036387 -0.356086,0.2322937 -0.356086,0.3859648 0,0.071475 0.0185,0.1411632 0.0556,0.2090641 0.0371,0.067901 0.106876,0.1483102 0.209446,0.2412279 0.1024,0.089344 0.23736,0.1894087 0.4049,0.3001949 1.49046,0.9537198 1.95489,1.1098774 2.46805,1.4757146 0.31845,0.227027 0.53248,0.5069771 0.57113,0.7634809 0.0447,0.2965907 0.0171,0.6110792 -0.0744,0.8967348 -0.098,0.3061022 -0.24794,0.620812 -0.49319,0.8285465 -0.46246,0.3917117 -1.10146,0.5332119 -1.69405,0.6602654 -0.42261,0.09061 -0.86277,0.066157 -1.29499,0.0658 C 99.056024,8.5951522 97.008704,8.434758 97.008704,8.434758 Z"
       id="text16-8"
       aria-label="S"
       sodipodi:nodetypes="ccsssscccsccccscccscssccssssssc"
       inkscape:label="S2" />
    <path
       d="m 88.995174,8.4347577 0.008,-1.9186787 c 0,0 1.39549,0.4636748 2.46432,0.4770948 1.73451,0.02177 1.54896,-0.8704398 1.2913,-1.0659487 -0.67173,-0.4633224 -1.49257,-0.663669 -2.25306,-0.9442839 -0.49426,-0.223516 -0.87204,-0.4968761 -0.99303,-0.5862198 -0.29509,-0.2822786 -0.37297,-0.4557574 -0.5288,-0.8343446 -0.0601,-0.1643924 -0.0901,-0.3377192 -0.0901,-0.5199803 0,-0.2179986 0.0489,-0.4306365 0.14663,-0.6379138 0.10242,-0.2108511 0.25367,-0.4074073 0.45376,-0.5896684 0.20013,-0.1822611 0.46543,-0.3395059 0.79589,-0.4717345 0.33015,-0.1322288 0.68372,-0.2215725 1.06071,-0.2680311 C 91.727654,1.0250162 92.116204,1 92.516454,1 c 0.78655,0 1.64292,0.069688 2.56911,0.2090642 0.0139,0.2465885 0.0301,0.4735214 0.0486,0.6807987 0.0185,0.2037037 0.0627,0.5628654 0.13258,1.0774849 -0.42819,-0.1322287 -0.81912,-0.2233593 -1.17281,-0.2733916 -0.35376,-0.053605 -0.65861,-0.080408 -0.91456,-0.080408 -0.36303,0 -0.66553,0.051819 -0.90751,0.1554578 -0.23739,0.1036387 -0.35609,0.2322937 -0.35609,0.3859648 0,0.071475 0.0176,0.141674 0.0556,0.2090641 0.40748,0.7222593 1.59853,1.0442664 2.49509,1.335226 0.1883,0.061107 0.66839,0.2957433 0.81881,0.4243984 0.13673,0.116866 0.3286,0.3387368 0.39371,0.4459492 0.0695,0.1072124 0.13217,0.336101 0.14435,0.5337036 0,0 0.0103,0.5248202 4e-5,0.6486879 -0.0371,0.4502067 -0.4122,0.8371119 -0.76604,1.1179345 -0.47472,0.3767565 -1.10146,0.5332119 -1.69405,0.6602654 -0.42261,0.09061 -0.86276,0.066157 -1.29498,0.0658 -1.02579,-8.475e-4 -3.07313,-0.1612422 -3.07313,-0.1612422 z"
       id="text16"
       aria-label="S"
       sodipodi:nodetypes="ccsccccsccccsccccscssscccssssc"
       inkscape:label="S" />
    <path
       d="m 82.168018,8.475849 h -2.884684 l 2.26166,-7.3600938 h 4.109392 l 2.261666,7.3600938 h -2.88042 L 84.66011,7.2314823 h -2.116572 z m 0.900397,-2.9806917 h 1.066821 L 83.601824,3.6671905 Z"
       id="path14"
       inkscape:label="A" />
    <path
       d="m 71.998334,1.116 h 4.461393 c 0.94212,0 1.66559,0.2395485 2.170409,0.7186454 0.504821,0.4758813 0.757232,1.065911 0.757232,1.7700889 0,0.6881001 -0.426943,1.5709361 -1.247812,2.0036657 l -2.885609,1.5211785 v 1.3465153 h -3.255613 z m 3.255613,1.5916328 v 3.7179463 c 1.031947,-1.528756 1.090025,-2.3224377 1.090025,-2.9173068 0,-0.2475882 -0.06431,-0.4421213 -0.192923,-0.5835993 C 76.022431,2.7799794 75.839152,2.7076326 75.601213,2.7076326 Z"
       id="path13"
       sodipodi:nodetypes="cscssccccccscsc"
       inkscape:label="P2" />
    <path
       d="M 66.738081,8.4760962 V 1.1159996 h 3.255613 v 6.8309299 z"
       id="path1"
       inkscape:label="I2"
       sodipodi:nodetypes="ccccc" />
    <path
       d="M 59.842382,8.4760962 H 56.581946 V 1.1159996 h 3.260436 v 2.1669631 l 1.659157,0.5291667 V 1.1159996 h 3.260436 V 8.4760962 H 61.501539 V 5.7413814 L 59.842382,5.2122147 Z"
       id="text1"
       sodipodi:nodetypes="ccccccccccccc"
       inkscape:label="H" />
    <path
       d="m 44.729908,1.1159531 h 3.62217 c 1.305459,0 2.313494,0.3617348 3.024103,1.0852044 0.710607,0.7202541 1.065911,1.3419781 1.065911,2.0801462 0,1.5755569 -1.228036,2.6451679 -1.677763,2.966913 C 50.142481,7.7177918 48.58496,8.4760469 47.975,8.4760469 h -3.245092 z m 3.255611,2.2875398 v 3.8433483 c 0.405421,-0.2851298 0.813923,-0.8887939 0.967099,-1.2743282 0.175904,-0.4076069 0.229033,-0.7738494 0.229033,-1.1909827 0,-0.3639026 -0.07568,-1.2755005 -1.196132,-1.3780374 z"
       id="path9"
       sodipodi:nodetypes="cscscscccccsc"
       inkscape:label="D" />
    <path
       d="m 43.426453,7.157759 v 1.31809 H 37.315546 V 1.1157552 h 6.110907 v 1.8472573 h -2.855294 v 1.4407383 l 1.98713,-0.5291667 v 1.8472602 h -1.98713 v 0.906748 z"
       id="path8"
       sodipodi:nodetypes="ccccccccccccc"
       inkscape:label="E2" />
    <path
       d="M 30.075201,8.475849 V 1.1157552 h 3.260437 V 7.157759 L 36.190931,6.6285923 V 8.475849 Z"
       id="path7"
       sodipodi:nodetypes="ccccccc"
       inkscape:label="L" />
    <path
       d="m 28.566941,7.157759 v 1.31809 H 22.456035 V 1.1157552 h 6.110906 v 1.8472573 h -2.855293 v 1.4407383 l 1.987129,-0.5291667 v 1.8472602 h -1.987129 v 0.906748 z"
       id="path6"
       sodipodi:nodetypes="ccccccccccccc"
       inkscape:label="E" />
    <path
       d="M 15.949363,4.7523949 13.548017,1.1157552 h 2.973479 L 17.428044,3.5293876 18.2943,1.1157552 h 2.953333 L 18.92284,4.7331015 21.39671,8.475849 H 18.419204 L 17.444159,7.0144423 16.505378,8.475849 h -2.957361 z"
       id="path5"
       sodipodi:nodetypes="ccccccccccccc"
       inkscape:label="X" />
    <path
       d="M 9.61562,8.475849 V 1.6449219 L 12.483871,1.1157552 V 8.475849 Z"
       id="path4"
       inkscape:label="I"
       sodipodi:nodetypes="ccccc" />
    <path
       d="m 1,1.116 h 4.461393 c 0.94212,0 1.66559,0.2395485 2.170409,0.7186454 0.504821,0.4758813 0.757232,1.2026269 0.757232,1.9068048 0,0.6881001 -0.2942737,1.3977178 -0.7987812,1.8533836 -1.3165257,1.1890719 -3.3346398,1.96418 -3.3346398,1.96418 v 0.91708 H 1 Z M 4.255613,2.7076328 V 6.726 c 0,0 0.7268644,-1.2509335 0.9294838,-2.0606354 C 5.2375338,4.4558174 5.3295259,4.0407994 5.345638,3.6449882 5.3557081,3.3976049 5.281328,3.066151 5.152715,2.924673 5.024097,2.7799794 4.840818,2.7076326 4.602879,2.7076326 Z"
       id="path13-7"
       inkscape:label="P"
       sodipodi:nodetypes="cscssccccccsscsc" />
  </g>
</svg>
