<?xml version="1.0" encoding="UTF-8" standalone="no"?>
<!-- Created with Inkscape (http://www.inkscape.org/) -->

<svg
   width="116mm"
   height="10mm"
   viewBox="0 0 116 10"
   version="1.1"
   id="svg1"
   inkscape:version="1.3 (0e150ed6c4, 2023-07-21)"
   sodipodi:docname="绘图2.svg"
   xmlns:inkscape="http://www.inkscape.org/namespaces/inkscape"
   xmlns:sodipodi="http://sodipodi.sourceforge.net/DTD/sodipodi-0.dtd"
   xmlns="http://www.w3.org/2000/svg"
   xmlns:svg="http://www.w3.org/2000/svg">
  <sodipodi:namedview
     id="namedview1"
     pagecolor="#ffffff"
     bordercolor="#000000"
     borderopacity="0.25"
     inkscape:showpageshadow="2"
     inkscape:pageopacity="0.0"
     inkscape:pagecheckerboard="0"
     inkscape:deskcolor="#d1d1d1"
     inkscape:document-units="mm"
     showguides="false"
     showgrid="true"
     inkscape:zoom="2.8284271"
     inkscape:cx="217.25856"
     inkscape:cy="5.1265242"
     inkscape:window-width="2560"
     inkscape:window-height="1057"
     inkscape:window-x="-8"
     inkscape:window-y="-8"
     inkscape:window-maximized="1"
     inkscape:current-layer="layer2">
    <inkscape:grid
       id="grid1"
       units="mm"
       originx="0"
       originy="0"
       spacingx="0.99999999"
       spacingy="0.99999997"
       empcolor="#0099e5"
       empopacity="0.30196078"
       color="#0099e5"
       opacity="0.14901961"
       empspacing="5"
       dotted="false"
       gridanglex="30"
       gridanglez="30"
       visible="true" />
  </sodipodi:namedview>
  <defs
     id="defs1">
    <rect
       x="84.913849"
       y="118.74132"
       width="579.20911"
       height="173.27948"
       id="rect1" />
  </defs>
  <g
     inkscape:groupmode="layer"
     id="layer2"
     inkscape:label="图层 2"
     style="display:inline">
    <path
       style="font-size:37.3333px;font-family:'Gill Sans Ultra Bold';-inkscape-font-specification:'Gill Sans Ultra Bold, ';white-space:pre;display:inline;stroke-width:0.24887;fill:#000000"
       d="M 93.466684,8.475849 H 90.582 l 2.26166,-7.3600938 h 4.109392 l 2.261666,7.3600938 h -2.88042 L 95.958776,7.2314823 h -2.116572 z m 0.900397,-2.9806917 h 1.066821 L 94.90049,3.6671905 Z"
       id="path14" />
    <path
       style="font-size:37.3333px;font-family:'Gill Sans Ultra Bold';-inkscape-font-specification:'Gill Sans Ultra Bold, ';white-space:pre;display:inline;fill:#000000;stroke-width:0.264583"
       d="m 83.297,1.116 h 4.461393 c 0.94212,0 1.66559,0.2395485 2.170409,0.7186454 0.504821,0.4758813 0.757232,1.065911 0.757232,1.7700889 0,0.6881001 -0.426943,1.5709361 -1.247812,2.0036657 L 86.552613,7.1295785 V 8.4760938 H 83.297 Z m 3.255613,1.5916328 v 3.7179463 c 1.031947,-1.528756 1.090025,-2.3224377 1.090025,-2.9173068 0,-0.2475882 -0.06431,-0.4421213 -0.192923,-0.5835993 C 87.321097,2.7799794 87.137818,2.7076326 86.899879,2.7076326 Z"
       id="path13"
       sodipodi:nodetypes="cscssccccccscsc" />
    <path
       style="font-size:37.3333px;font-family:'Gill Sans Ultra Bold';-inkscape-font-specification:'Gill Sans Ultra Bold, ';white-space:pre;display:inline;fill:#000000;stroke-width:0.251252"
       d="M 75.715971,8.475849 H 73.554347 L 71.210052,1.1157552 h 2.866216 l 0.769834,3.9894167 0.808978,-3.9894167 h 2.039841 l 0.848124,3.9894167 0.726338,-3.9894167 h 2.870566 L 79.904388,8.475849 h -2.165974 l -1.04819,-3.4423374 z"
       id="path12"
       sodipodi:nodetypes="cccccccccccccc" />
    <path
       style="font-size:37.3333px;font-family:'Gill Sans Ultra Bold';-inkscape-font-specification:'Gill Sans Ultra Bold, ';white-space:pre;display:inline;fill:#000000;stroke-width:0.264583"
       d="m 67.038289,8.596428 c -1.051441,0 -1.94372,-0.3681659 -2.676837,-1.1044977 -0.729899,-0.7395453 -1.094848,-1.6398624 -1.094848,-2.7009512 0,-1.0578729 0.364949,-1.9533676 1.094848,-2.6864839 C 65.094569,1.3681651 65.986848,1 67.038289,1 c 1.054657,0 1.946937,0.3681651 2.676838,1.1044952 0.733116,0.7331163 1.099674,1.628611 1.099674,2.6864839 0,1.0610888 -0.366558,1.9614059 -1.099674,2.7009512 -0.729901,0.7363318 -1.622181,1.1044977 -2.676838,1.1044977 z m 0,-5.3040648 c -0.499628,0 -0.728292,0.6168781 -0.728292,1.3008663 C 66.309997,5.4018635 66.685812,7 67.038289,7 c 0.384335,0 0.733116,-1.5934678 0.733116,-2.4067705 0,-0.6849043 -0.21734,-1.3008663 -0.733116,-1.3008663 z"
       id="path11"
       sodipodi:nodetypes="scscscscssssss" />
    <path
       style="font-size:37.3333px;font-family:'Gill Sans Ultra Bold';-inkscape-font-specification:'Gill Sans Ultra Bold, ';white-space:pre;display:inline;fill:#000000;stroke-width:0.264583"
       d="M 56.634799,8.475849 V 1.1157552 h 3.260436 v 5.5128371 l 2.855294,0.5291667 v 1.31809 z"
       id="path10"
       sodipodi:nodetypes="ccccccc" />
    <path
       style="font-size:37.3333px;font-family:'Gill Sans Ultra Bold';-inkscape-font-specification:'Gill Sans Ultra Bold, ';white-space:pre;display:inline;stroke-width:0.264583;fill:#000000"
       d="m 44.729908,1.1159531 h 3.62217 c 1.305459,0 2.313494,0.3617348 3.024103,1.0852044 0.710607,0.7202541 1.065911,1.3419781 1.065911,2.0801462 0,1.5755569 -1.228036,2.6451679 -1.677763,2.966913 C 50.142481,7.7177918 48.58496,8.4760469 47.975,8.4760469 h -3.245092 z m 3.255611,2.2875398 v 3.8433483 c 0.405421,-0.2851298 0.813923,-0.8887939 0.967099,-1.2743282 0.175904,-0.4076069 0.229033,-0.7738494 0.229033,-1.1909827 0,-0.3639026 -0.07568,-1.2755005 -1.196132,-1.3780374 z"
       id="path9"
       sodipodi:nodetypes="cscscscccccsc" />
    <path
       style="font-size:37.3333px;font-family:'Gill Sans Ultra Bold';-inkscape-font-specification:'Gill Sans Ultra Bold, ';white-space:pre;display:inline;fill:#000000;stroke-width:0.264583"
       d="m 43.426453,7.157759 v 1.31809 H 37.315546 V 1.1157552 h 6.110907 v 1.8472573 h -2.855294 v 1.4407383 l 1.98713,-0.5291667 v 1.8472602 h -1.98713 v 0.906748 z"
       id="path8"
       sodipodi:nodetypes="ccccccccccccc" />
    <path
       style="font-size:37.3333px;font-family:'Gill Sans Ultra Bold';-inkscape-font-specification:'Gill Sans Ultra Bold, ';white-space:pre;display:inline;fill:#000000;stroke-width:0.264583"
       d="M 30.075201,8.475849 V 1.1157552 h 3.260437 V 7.157759 L 36.190931,6.6285923 V 8.475849 Z"
       id="path7"
       sodipodi:nodetypes="ccccccc" />
    <path
       style="font-size:37.3333px;font-family:'Gill Sans Ultra Bold';-inkscape-font-specification:'Gill Sans Ultra Bold, ';white-space:pre;display:inline;fill:#000000;stroke-width:0.264583"
       d="m 28.566941,7.157759 v 1.31809 H 22.456035 V 1.1157552 h 6.110906 v 1.8472573 h -2.855293 v 1.4407383 l 1.987129,-0.5291667 v 1.8472602 h -1.987129 v 0.906748 z"
       id="path6"
       sodipodi:nodetypes="ccccccccccccc" />
    <path
       style="font-size:37.3333px;font-family:'Gill Sans Ultra Bold';-inkscape-font-specification:'Gill Sans Ultra Bold, ';white-space:pre;display:inline;fill:#000000;stroke-width:0.241825"
       d="M 15.949363,4.7523949 13.548017,1.1157552 h 2.973479 L 17.428044,3.5293876 18.2943,1.1157552 h 2.953333 L 18.92284,4.7331015 21.39671,8.475849 H 18.419204 L 17.444159,7.0144423 16.505378,8.475849 h -2.957361 z"
       id="path5"
       sodipodi:nodetypes="ccccccccccccc" />
    <path
       style="font-size:37.3333px;font-family:'Gill Sans Ultra Bold';-inkscape-font-specification:'Gill Sans Ultra Bold, ';white-space:pre;display:inline;stroke-width:0.248344;fill:#000000"
       d="M 9.61562,8.475849 V 1.1157552 h 2.868251 V 8.475849 Z"
       id="path4" />
    <path
       style="font-size:37.3333px;font-family:'Gill Sans Ultra Bold';-inkscape-font-specification:'Gill Sans Ultra Bold, ';white-space:pre;display:inline;stroke-width:0.264583;fill:#000000"
       d="m 1,1.116 h 4.461393 c 0.94212,0 1.66559,0.2395485 2.170409,0.7186454 0.504821,0.4758813 0.757232,1.2026269 0.757232,1.9068048 0,0.6881001 -0.2942737,1.3977178 -0.7987812,1.8533836 -1.3165257,1.1890719 -3.3346398,1.96418 -3.3346398,1.96418 v 0.91708 H 1 Z M 4.255613,2.7076328 V 6.726 c 0,0 0.7268644,-1.2509335 0.9294838,-2.0606354 C 5.2375338,4.4558174 5.3295259,4.0407994 5.345638,3.6449882 5.3557081,3.3976049 5.281328,3.066151 5.152715,2.924673 5.024097,2.7799794 4.840818,2.7076326 4.602879,2.7076326 Z"
       id="path13-7"
       inkscape:label="path3"
       sodipodi:nodetypes="cscssccccccsscsc" />
    <path
       d="m 100.29384,8.4347577 0.008,-1.9186787 2.46432,0.4770948 0.99653,-0.1670883 0.32987,-0.3743343 c 0.104,-0.1180227 0.14199,-0.3840748 -0.0351,-0.5245261 -0.0698,-0.066611 -0.29017,-0.1825818 -0.41154,-0.2647777 L 101.8044,4.9829412 c -0.49426,-0.223516 -0.87204,-0.4968761 -0.99303,-0.5862198 -0.29509,-0.2822786 -0.37297,-0.4557574 -0.5288,-0.8343446 -0.0601,-0.1643924 -0.0901,-0.3377192 -0.0901,-0.5199803 0,-0.2179986 0.0489,-0.4306365 0.14663,-0.6379138 0.10242,-0.2108511 0.25367,-0.4074073 0.45376,-0.5896684 0.20013,-0.1822611 0.46543,-0.3395059 0.79589,-0.4717345 0.33015,-0.1322288 0.68372,-0.2215725 1.06071,-0.2680311 C 103.02632,1.0250162 103.41487,1 103.81512,1 c 0.78655,0 1.64292,0.069688 2.56911,0.2090642 0.0139,0.2465885 0.0301,0.4735214 0.0486,0.6807987 0.0185,0.2037037 0.0627,0.5628654 0.13258,1.0774849 -0.42819,-0.1322287 -0.81912,-0.2233593 -1.17281,-0.2733916 -0.35376,-0.053605 -0.65861,-0.080408 -0.91456,-0.080408 -0.36303,0 -0.66553,0.051819 -0.90751,0.1554578 -0.23739,0.1036387 -0.35609,0.2322937 -0.35609,0.3859648 0,0.071475 0.0185,0.1411632 0.0556,0.2090641 0.0371,0.067901 0.10688,0.1483102 0.20945,0.2412279 0.1024,0.089344 0.23736,0.1894087 0.40489,0.3001949 0.16755,0.1072124 0.41883,0.3031101 0.77724,0.4356835 l 1.10351,0.3581197 c 0.1883,0.061107 0.66839,0.2957433 0.81881,0.4243984 0.13673,0.116866 0.3286,0.3387368 0.39371,0.4459492 0.0695,0.1072124 0.1115,0.4229174 0.14435,0.5337036 l 4e-5,0.6486879 -0.76604,1.1179345 -1.69405,0.6602654 -1.29498,0.0658 z"
       id="text16"
       style="font-size:9.87777px;font-family:'Eras Bold ITC';-inkscape-font-specification:'Eras Bold ITC';fill:#000000;stroke-width:0.335584"
       aria-label="S"
       sodipodi:nodetypes="ccccscccccsccccsccccscsscccscccccccc" />
    <path
       d="m 108.30737,8.434758 0.008,-1.9186787 2.46432,0.4770948 0.96346,-0.1340154 0.36294,-0.4074072 c 0.0404,-0.045363 -0.0116,-0.1179333 -0.0348,-0.17154 -0.0232,-0.05718 -0.0674,-0.1197205 -0.13258,-0.1876216 -0.0648,-0.071475 -0.15788,-0.1483109 -0.27925,-0.2305068 L 109.81793,4.9829415 C 109.51076,4.7828116 109.29668,4.6380749 109.17569,4.5487312 108.929,4.3664701 108.73586,4.196717 108.59626,4.0394721 108.46129,3.8822273 108.36123,3.7231956 108.2961,3.5623771 108.236,3.3979847 108.206,3.2246579 108.206,3.0423968 c 0,-0.2179986 0.0489,-0.4306365 0.14663,-0.6379138 0.10242,-0.2108511 0.25367,-0.4074073 0.45376,-0.5896684 0.20013,-0.1822611 0.46543,-0.3395059 0.79589,-0.4717345 C 109.93243,1.2108513 110.286,1.1215076 110.66299,1.075049 111.03985,1.025016 111.4284,1 111.82865,1 c 0.78655,0 2.20419,0.1690789 3.14207,0.5072368 l -0.72663,2.0471135 c -0.25663,-0.3102181 -0.58366,-0.4946497 -0.87889,-0.6499193 -0.31501,-0.1696635 -0.61768,-0.2733432 -0.94379,-0.2733432 -0.36303,0 -0.59537,0.034279 -0.83735,0.1379182 -0.23739,0.1036387 -0.35609,0.2322937 -0.35609,0.3859648 0,0.071475 0.0185,0.1411632 0.0556,0.2090641 0.0371,0.067901 0.10688,0.1483102 0.20945,0.2412279 0.1024,0.089344 0.23736,0.1894087 0.40489,0.3001949 0.16755,0.1072124 0.43052,0.268031 0.78893,0.4824557 l 1.5135,0.6432745 c 0.18219,0.077436 0.32784,0.256437 0.44674,0.3913255 0.14266,0.1342007 0.29001,0.7221398 0.29001,0.7221398 l -0.0744,0.8967348 -0.49319,0.8285465 -1.69405,0.6602654 -1.29498,0.0658 z"
       id="text16-8"
       style="font-size:9.87777px;font-family:'Eras Bold ITC';-inkscape-font-specification:'Eras Bold ITC';display:inline;stroke-width:0.335584;fill:#000000"
       aria-label="S"
       sodipodi:nodetypes="ccccscccccccsccccscccscsscccsccccccc" />
  </g>
</svg>
